<svg width="100%" height="100%" viewBox="0 0 300 301" version="1.1" style="fill-rule:evenodd;clip-rule:evenodd;stroke-linecap:round;stroke-linejoin:round;stroke-miterlimit:1.5;">
    <g transform="matrix(1,0,0,1,-2792,-732)">
        <g id="Alerts" transform="matrix(1,0,0,1,2471.05,732.716)">
            <rect x="320.961" y="-0.306" width="299.953" height="299.953" style="fill:none;"/>
            <g transform="matrix(0.771658,-0.256854,0.256854,0.771658,-2276.98,298.036)">
                <path d="M3355.18,795.927C3355.18,794.189 3354.24,792.586 3352.72,791.737C3351.2,790.889 3349.34,790.926 3347.86,791.836C3337.37,798.279 3317.22,810.648 3298.4,822.199C3270.29,839.455 3237.95,848.589 3204.96,848.589L3162.54,848.589C3159.45,848.589 3156.47,849.82 3154.28,852.011C3152.09,854.203 3150.86,857.175 3150.86,860.274C3150.86,874.53 3150.86,898.608 3150.86,913.824C3150.86,921.533 3157.11,927.781 3164.82,927.781C3175.44,927.781 3190.75,927.781 3205.83,927.781C3238.94,927.781 3271.38,937.03 3299.51,954.484C3316.85,965.245 3335.25,976.662 3345.95,983.301C3347.82,984.457 3350.16,984.513 3352.07,983.447C3353.99,982.381 3355.18,980.362 3355.18,978.17C3355.18,942.33 3355.18,828.208 3355.18,795.927Z" style="fill:none;stroke:white;stroke-width:9.84px;"/>
            </g>
            <g transform="matrix(0.771658,-0.256854,0.256854,0.771658,-2310.86,237.022)">
                <rect x="3195.21" y="1012.78" width="39.596" height="71.801" style="fill:none;stroke:white;stroke-width:6.15px;"/>
            </g>
            <g transform="matrix(0.771658,-0.256854,0.256854,0.771658,-2342.55,326.72)">
                <path d="M3445.06,847.533C3463.2,847.533 3477.93,862.259 3477.93,880.398C3477.93,898.536 3463.2,913.263 3445.06,913.263" style="fill:none;stroke:white;stroke-width:6.15px;"/>
            </g>
        </g>
    </g>
</svg>
