<svg width="100%" height="100%" viewBox="0 0 301 301" version="1.1" style="fill-rule:evenodd;clip-rule:evenodd;stroke-linecap:round;stroke-linejoin:round;stroke-miterlimit:1.5;">
    <g transform="matrix(1,0,0,1,-1741,-2192)">
        <g id="Comfort" transform="matrix(1,0,0,1,1420.49,2192.81)">
            <rect x="320.961" y="-0.306" width="299.953" height="299.953" style="fill:none;"/>
            <g transform="matrix(0.321501,-1.23834,1.23834,0.321501,-3038.68,1732.41)">
                <path d="M1842.93,2432.79C1849.8,2426.69 1862.5,2415.07 1874.97,2399.69C1892.54,2378.01 1909.64,2348.88 1909.29,2317.24" style="fill:none;stroke:white;stroke-width:3.91px;"/>
            </g>
            <g transform="matrix(0.321501,-1.23834,1.23834,0.321501,-3038.68,1732.41)">
                <path d="M1866.48,2410.31C1866.48,2410.31 1845.65,2375.02 1841.03,2367.19C1840.47,2366.25 1840.49,2365.08 1841.07,2364.16C1843.53,2360.22 1850.19,2349.59 1853.17,2344.83C1854,2343.51 1855.71,2343.08 1857.07,2343.84C1859.27,2345.08 1862.62,2346.96 1865.53,2348.6C1866.54,2349.16 1867.8,2349.08 1868.73,2348.37C1869.65,2347.66 1870.07,2346.47 1869.79,2345.34C1868.31,2339.63 1866.27,2331.59 1865.25,2327.06C1865,2325.83 1865.56,2324.58 1866.64,2323.95C1881.2,2315 1905.3,2287.17 1909.28,2264.53C1909.43,2263.39 1910.25,2262.46 1911.35,2262.14C1912.45,2261.83 1913.63,2262.2 1914.36,2263.09C1933.01,2285.01 1966.62,2325.3 1906.6,2408.77C1906.05,2409.53 1905.17,2409.98 1904.23,2409.98C1885.39,2410 1866.48,2410.31 1866.48,2410.31Z" style="fill:none;stroke:white;stroke-width:6.25px;"/>
            </g>
        </g>
    </g>
</svg>
