<svg width="100%" height="100%" viewBox="0 0 301 301" version="1.1" style="fill-rule:evenodd;clip-rule:evenodd;stroke-linecap:round;stroke-linejoin:round;stroke-miterlimit:1.5;">
    <g transform="matrix(1,0,0,1,-1393,-1469)">
        <g id="Delete" transform="matrix(1,0,0,1,1072.12,1470.19)">
            <rect x="320.961" y="-0.306" width="299.953" height="299.953" style="fill:none;"/>
            <g transform="matrix(1.13111,0,0,1.13111,-1255.58,-1688.09)">
                <path d="M1585.18,1577.42L1467.67,1577.42C1467.67,1577.42 1480.16,1675.59 1483.89,1704.93C1484.48,1709.6 1488.46,1713.11 1493.17,1713.11C1509.07,1713.11 1543.78,1713.11 1559.68,1713.11C1564.39,1713.11 1568.37,1709.6 1568.96,1704.93C1572.69,1675.59 1585.18,1577.42 1585.18,1577.42Z" style="fill:none;stroke:rgb(244,244,244);stroke-width:7.07px;"/>
            </g>
            <g transform="matrix(1.13111,0,0,1.13111,-1270.97,-1690.2)">
                <path d="M1540.03,1592.57L1540.03,1698.64" style="fill:none;stroke:rgb(244,244,244);stroke-width:4.42px;"/>
            </g>
            <g transform="matrix(1.13111,0,0,1.13111,-1246.66,-1690.2)">
                <path d="M1547.49,1592.57L1540.03,1698.64" style="fill:none;stroke:rgb(244,244,244);stroke-width:4.42px;"/>
            </g>
            <g transform="matrix(1.13111,0,0,1.13111,-1294.6,-1690.2)">
                <path d="M1531.97,1592.57L1540.03,1698.64" style="fill:none;stroke:rgb(244,244,244);stroke-width:4.42px;"/>
            </g>
            <g transform="matrix(1.13111,0,0,1.13111,-1270.97,-1690.2)">
                <path d="M1590.39,1561.17C1588.89,1559.63 1586.84,1558.77 1584.69,1558.77C1569.81,1558.77 1509.78,1558.77 1494.9,1558.77C1492.75,1558.77 1490.7,1559.63 1489.2,1561.17C1485.55,1564.9 1478.52,1572.1 1474.5,1576.21C1473.99,1576.73 1473.84,1577.5 1474.12,1578.18C1474.4,1578.85 1475.06,1579.29 1475.79,1579.29C1496.24,1579.29 1583.35,1579.29 1603.8,1579.29C1604.53,1579.29 1605.19,1578.85 1605.47,1578.18C1605.75,1577.5 1605.61,1576.73 1605.1,1576.21C1601.08,1572.1 1594.04,1564.9 1590.39,1561.17Z" style="fill:none;stroke:rgb(244,244,244);stroke-width:7.07px;"/>
            </g>
            <g transform="matrix(0.347439,0,0,1.13111,-63.9112,-1713.4)">
                <path d="M1593.6,1564.45C1590.3,1561.08 1580.2,1558.77 1568.75,1558.77C1551.93,1558.77 1527.66,1558.77 1510.84,1558.77C1499.39,1558.77 1489.29,1561.08 1485.99,1564.45C1481.96,1568.57 1476.72,1573.93 1473.77,1576.95C1473.23,1577.5 1473.57,1578.1 1474.68,1578.56C1475.8,1579.02 1477.55,1579.29 1479.42,1579.29C1503.57,1579.29 1576.02,1579.29 1600.17,1579.29C1602.04,1579.29 1603.79,1579.02 1604.91,1578.56C1606.02,1578.1 1606.36,1577.5 1605.82,1576.95C1602.87,1573.93 1597.63,1568.57 1593.6,1564.45Z" style="fill:none;stroke:rgb(244,244,244);stroke-width:9.56px;"/>
            </g>
        </g>
    </g>
</svg>
