<svg width="100%" height="100%" viewBox="0 0 301 301" version="1.1" style="fill-rule:evenodd;clip-rule:evenodd;stroke-linecap:round;stroke-linejoin:round;stroke-miterlimit:1.5;">
    <g transform="matrix(1,0,0,1,-1044,-1099)">
        <g id="Electricity" transform="matrix(1,0,0,1,724.002,1100.19)">
            <rect x="320.961" y="-0.306" width="299.953" height="299.953" style="fill:none;"/>
            <g transform="matrix(1,0,0,1,-720.971,-1100.19)">
                <path d="M1183.59,1356.95C1183.17,1357.26 1182.62,1357.34 1182.12,1357.16C1181.63,1356.98 1181.26,1356.57 1181.13,1356.06C1179.25,1348.49 1173.2,1324.23 1171.18,1316.1C1171.04,1315.55 1171.21,1314.96 1171.62,1314.56C1172.03,1314.16 1172.62,1314.01 1173.17,1314.17C1176.46,1315.09 1182.02,1316.65 1185.21,1317.54C1185.85,1317.72 1186.53,1317.63 1187.09,1317.29C1187.66,1316.95 1188.06,1316.39 1188.2,1315.74C1190.12,1307.01 1196.54,1277.68 1198.53,1268.6C1198.67,1267.96 1198.5,1267.29 1198.08,1266.79C1197.65,1266.3 1197.01,1266.03 1196.36,1266.07C1188.35,1266.56 1164.72,1268.01 1148.96,1268.98C1145.76,1269.18 1142.69,1267.7 1140.84,1265.08C1138.99,1262.47 1138.63,1259.08 1139.89,1256.13C1152.04,1227.56 1179.42,1163.23 1185.97,1147.83C1186.84,1145.8 1188.83,1144.48 1191.05,1144.47C1198.53,1144.46 1215.68,1144.42 1224.73,1144.4C1225.98,1144.4 1227.14,1145.05 1227.79,1146.11C1228.44,1147.17 1228.5,1148.49 1227.94,1149.6C1218.88,1167.52 1189.24,1226.18 1182.76,1239.02C1182.49,1239.54 1182.53,1240.16 1182.84,1240.65C1183.15,1241.13 1183.71,1241.42 1184.29,1241.4C1193.24,1241.03 1221.51,1239.85 1237.1,1239.2C1239.27,1239.11 1241.32,1240.19 1242.48,1242.03C1243.63,1243.86 1243.72,1246.18 1242.7,1248.1C1232.47,1267.39 1209.49,1310.75 1203.9,1321.29C1203.58,1321.88 1203.54,1322.58 1203.77,1323.21C1204.01,1323.84 1204.5,1324.34 1205.13,1324.58C1208.14,1325.74 1213.21,1327.69 1216.56,1328.98C1217.22,1329.24 1217.7,1329.83 1217.79,1330.54C1217.89,1331.25 1217.59,1331.95 1217.01,1332.37C1209.57,1337.85 1189.8,1352.38 1183.59,1356.95Z" style="fill:none;stroke:white;stroke-width:8px;"/>
            </g>
        </g>
    </g>
</svg>
