<svg width="100%" height="100%" viewBox="0 0 301 301" version="1.1" style="fill-rule:evenodd;clip-rule:evenodd;stroke-linecap:round;stroke-linejoin:round;stroke-miterlimit:1.5;">
    <g transform="matrix(1,0,0,1,-2088,-2192)">
        <g id="Exports" transform="matrix(1,0,0,1,1767.89,2192.81)">
            <rect x="320.961" y="-0.306" width="299.953" height="299.953" style="fill:none;"/>
            <g transform="matrix(1,0,0,1,-1766.27,-2190.84)">
                <path d="M2140.21,2357.61L2140.21,2410.26C2140.21,2424.79 2152,2436.59 2166.53,2436.59L2306.41,2436.59C2320.93,2436.59 2332.73,2424.79 2332.73,2410.26L2332.73,2380.34" style="fill:none;stroke:white;stroke-width:8px;"/>
            </g>
            <g transform="matrix(0.52616,-0.674081,1.22586,0.956854,-3585.58,-588.195)">
                <path d="M2186.67,2385.53C2186.67,2385.53 2165.5,2369.88 2141.07,2352.67C2184.57,2332.21 2232.19,2317.16 2304.23,2324.36C2304.35,2317.6 2304.23,2305.86 2304.23,2305.86L2387.19,2351.48L2304.23,2397.1C2304.23,2397.1 2304.27,2385.25 2304.23,2378.6C2281,2375.47 2250.33,2376.03 2204.18,2395.84" style="fill:none;stroke:white;stroke-width:6.38px;"/>
            </g>
        </g>
    </g>
</svg>
