<svg width="100%" height="100%" viewBox="0 0 301 301" version="1.1" style="fill-rule:evenodd;clip-rule:evenodd;stroke-linecap:round;stroke-linejoin:round;stroke-miterlimit:1.5;">
    <g transform="matrix(1,0,0,1,-1038,-2910)">
        <g id="Eye-Open" transform="matrix(1,0,0,1,717.961,2910.88)">
            <rect x="320.961" y="-0.306" width="299.953" height="299.953" style="fill:none;"/>
            <g transform="matrix(1.13197,0,0,1.13197,-870.46,-3343.34)">
                <path d="M1185.02,3037.67C1223.04,3037.67 1255.69,3064.84 1269.58,3078.35C1271.57,3080.32 1272.69,3083 1272.69,3085.8C1272.69,3088.6 1271.57,3091.28 1269.58,3093.25C1255.69,3106.76 1223.04,3133.93 1185.02,3133.93C1146.99,3133.93 1114.34,3106.76 1100.45,3093.25C1098.46,3091.28 1097.34,3088.6 1097.34,3085.8C1097.34,3083 1098.46,3080.32 1100.45,3078.35C1114.34,3064.84 1146.99,3037.67 1185.02,3037.67Z" style="fill:none;stroke:white;stroke-width:7.07px;"/>
            </g>
            <g transform="matrix(1.3784,0,0,1.3784,-1167.84,-4068.98)">
                <circle cx="1188.9" cy="3060.55" r="29.768" style="fill:none;stroke:white;stroke-width:3.63px;"/>
            </g>
            <g transform="matrix(-1,-1.22465e-16,1.22465e-16,-1,2020.77,3210.14)">
                <path d="M1450.19,3094.24L1463.87,3078.65" style="fill:none;stroke:white;stroke-width:5px;"/>
            </g>
            <g transform="matrix(1,1.22465e-16,1.22465e-16,-1,-1077.36,3208.79)">
                <path d="M1450.19,3094.24L1463.87,3078.65" style="fill:none;stroke:white;stroke-width:5px;"/>
            </g>
            <g transform="matrix(0.751728,0.659473,0.659473,-0.751728,-2658.87,1444.03)">
                <path d="M1450.19,3094.24L1463.87,3078.65" style="fill:none;stroke:white;stroke-width:5px;"/>
            </g>
            <g transform="matrix(0.555429,0.831564,0.831564,-0.555429,-2854.51,597.437)">
                <path d="M1450.19,3094.24L1463.87,3078.65" style="fill:none;stroke:white;stroke-width:5px;"/>
            </g>
            <g transform="matrix(0.896798,0.442441,0.442441,-0.896798,-2254.64,2220.18)">
                <path d="M1450.19,3094.24L1463.87,3078.65" style="fill:none;stroke:white;stroke-width:5px;"/>
            </g>
        </g>
    </g>
</svg>
