<svg width="100%" height="100%" viewBox="0 0 301 301" version="1.1" style="fill-rule:evenodd;clip-rule:evenodd;stroke-linecap:round;stroke-linejoin:round;stroke-miterlimit:1.5;">
    <g transform="matrix(1,0,0,1,-1398,-2910)">
        <g id="Eye-Closed" transform="matrix(1,0,0,1,1077.98,2910.88)">
            <rect x="320.961" y="-0.306" width="299.953" height="299.953" style="fill:none;"/>
            <g transform="matrix(1.13197,0,0,1.13197,-870.46,-3343.34)">
                <path d="M1276.72,3085.8C1276.72,3085.8 1235.63,3133.93 1185.02,3133.93C1134.4,3133.93 1093.31,3085.8 1093.31,3085.8" style="fill:none;stroke:white;stroke-width:7.07px;"/>
            </g>
            <g transform="matrix(1,0,0,1,-1077.98,-2910.88)">
                <path d="M1450.19,3094.24L1463.87,3078.65" style="fill:none;stroke:white;stroke-width:5px;"/>
            </g>
            <g transform="matrix(-1,0,0,1,2020.15,-2909.53)">
                <path d="M1450.19,3094.24L1463.87,3078.65" style="fill:none;stroke:white;stroke-width:5px;"/>
            </g>
            <g transform="matrix(-0.751728,-0.659473,-0.659473,0.751728,3601.66,-1144.77)">
                <path d="M1450.19,3094.24L1463.87,3078.65" style="fill:none;stroke:white;stroke-width:5px;"/>
            </g>
            <g transform="matrix(-0.555429,-0.831564,-0.831564,0.555429,3797.29,-298.175)">
                <path d="M1450.19,3094.24L1463.87,3078.65" style="fill:none;stroke:white;stroke-width:5px;"/>
            </g>
            <g transform="matrix(-0.896798,-0.442441,-0.442441,0.896798,3197.43,-1920.92)">
                <path d="M1450.19,3094.24L1463.87,3078.65" style="fill:none;stroke:white;stroke-width:5px;"/>
            </g>
        </g>
    </g>
</svg>
