<svg width="100%" height="100%" viewBox="0 0 301 301" version="1.1" style="fill-rule:evenodd;clip-rule:evenodd;stroke-linecap:round;stroke-linejoin:round;stroke-miterlimit:1.5;">
    <g transform="matrix(1,0,0,1,-2433,-2559)">
        <g id="Filter" transform="matrix(1,0,0,1,2112.52,2559.67)">
            <rect x="320.961" y="-0.306" width="299.953" height="299.953" style="fill:none;"/>
            <g transform="matrix(0.981491,0,0,1,-2062.16,-2573.43)">
                <path d="M2505.55,2653.68L2601.03,2653.68" style="fill:none;stroke:white;stroke-width:8.07px;"/>
            </g>
            <g transform="matrix(0.940362,0,0,1,-1950.29,-2573.43)">
                <path d="M2625.87,2653.68L2653.38,2653.68" style="fill:none;stroke:white;stroke-width:8.24px;"/>
            </g>
            <g transform="matrix(0.941515,0,0,1,-1961.99,-2504.01)">
                <path d="M2505.55,2653.68L2531.45,2653.68" style="fill:none;stroke:white;stroke-width:8.24px;"/>
            </g>
            <g transform="matrix(0.983099,0,0,1,-2063.69,-2504.01)">
                <path d="M2556.28,2653.68L2653.38,2653.68" style="fill:none;stroke:white;stroke-width:8.07px;"/>
            </g>
            <g transform="matrix(0.978422,0,0,1,-2054.47,-2434.59)">
                <path d="M2505.55,2653.68L2575.75,2653.68" style="fill:none;stroke:white;stroke-width:8.09px;"/>
            </g>
            <g transform="matrix(0.964137,0,0,1,-2013.37,-2434.59)">
                <path d="M2600.59,2653.68L2653.38,2653.68" style="fill:none;stroke:white;stroke-width:8.14px;"/>
            </g>
            <g transform="matrix(1,0,0,1,-2110.9,-2559.67)">
                <circle cx="2615.82" cy="2639.92" r="12.416" style="fill:none;stroke:white;stroke-width:5px;"/>
            </g>
            <g transform="matrix(1,0,0,1,-2180.48,-2490.09)">
                <circle cx="2615.82" cy="2639.92" r="12.416" style="fill:none;stroke:white;stroke-width:5px;"/>
            </g>
            <g transform="matrix(1,0,0,1,-2136.18,-2420.75)">
                <circle cx="2615.82" cy="2639.92" r="12.416" style="fill:none;stroke:white;stroke-width:5px;"/>
            </g>
        </g>
    </g>
</svg>
