<svg width="100%" height="100%" viewBox="0 0 300 301" version="1.1" style="fill-rule:evenodd;clip-rule:evenodd;stroke-linecap:round;stroke-linejoin:round;stroke-miterlimit:1.5;">
    <g transform="matrix(1,0,0,1,-2792,-2559)">
        <g id="Floor" transform="matrix(1,0,0,1,2471.05,2559.67)">
            <rect x="320.961" y="-0.306" width="299.953" height="299.953" style="fill:none;"/>
            <g transform="matrix(0.948538,0,0,0.948538,-2319.65,-2420.02)">
                <path d="M3008.64,2729.28C3009.62,2728.8 3010.77,2728.8 3011.75,2729.28C3016.93,2731.77 3033.82,2739.89 3043.36,2744.48C3044.6,2745.08 3045.39,2746.33 3045.39,2747.71C3045.39,2749.09 3044.6,2750.35 3043.36,2750.95C3023.71,2760.4 2966.62,2787.86 2947.96,2796.84C2944.19,2798.65 2939.79,2798.65 2936.01,2796.84C2917.36,2787.86 2860.27,2760.4 2840.62,2750.95C2839.38,2750.35 2838.59,2749.09 2838.59,2747.71C2838.59,2746.33 2839.38,2745.08 2840.62,2744.48C2850.16,2739.89 2867.04,2731.77 2872.22,2729.28C2873.21,2728.8 2874.35,2728.8 2875.34,2729.28C2883.46,2733.18 2921.21,2751.34 2936.01,2758.46C2939.79,2760.28 2944.19,2760.28 2947.96,2758.46C2962.76,2751.34 3000.52,2733.18 3008.64,2729.28Z" style="fill:none;stroke:white;stroke-width:8.43px;"/>
            </g>
            <g transform="matrix(0.948538,0,0,0.948538,-2319.65,-2456.81)">
                <path d="M3008.64,2729.28C3009.62,2728.8 3010.77,2728.8 3011.75,2729.28C3016.93,2731.77 3033.82,2739.89 3043.36,2744.48C3044.6,2745.08 3045.39,2746.33 3045.39,2747.71C3045.39,2749.09 3044.6,2750.35 3043.36,2750.95C3023.71,2760.4 2966.62,2787.86 2947.96,2796.84C2944.19,2798.65 2939.79,2798.65 2936.01,2796.84C2917.36,2787.86 2860.27,2760.4 2840.62,2750.95C2839.38,2750.35 2838.59,2749.09 2838.59,2747.71C2838.59,2746.33 2839.38,2745.08 2840.62,2744.48C2850.16,2739.89 2867.04,2731.77 2872.22,2729.28C2873.21,2728.8 2874.35,2728.8 2875.34,2729.28C2883.46,2733.18 2921.21,2751.34 2936.01,2758.46C2939.79,2760.28 2944.19,2760.28 2947.96,2758.46C2962.76,2751.34 3000.52,2733.18 3008.64,2729.28Z" style="fill:none;stroke:white;stroke-width:8.43px;"/>
            </g>
            <g transform="matrix(1.07443,0,0,0.516865,-2722.24,-1301.14)">
                <path d="M2966.71,2645.98C2970.04,2642.65 2973.92,2642.65 2977.26,2645.98C2993.73,2662.45 3044.13,2712.85 3061.47,2730.2C3062.57,2731.29 3063.27,2733.6 3063.27,2736.13C3063.27,2738.66 3062.57,2740.97 3061.47,2742.07C3044.13,2759.41 2993.73,2809.81 2977.26,2826.28C2973.92,2829.62 2970.04,2829.62 2966.71,2826.28C2950.24,2809.81 2899.83,2759.41 2882.49,2742.07C2881.39,2740.97 2880.7,2738.66 2880.7,2736.13C2880.7,2733.6 2881.39,2731.29 2882.49,2730.2C2899.83,2712.85 2950.24,2662.45 2966.71,2645.98Z" style="fill:none;stroke:white;stroke-width:9.49px;"/>
            </g>
        </g>
    </g>
</svg>
