<svg width="100%" height="100%" viewBox="0 0 301 300" version="1.1" style="fill-rule:evenodd;clip-rule:evenodd;stroke-linecap:round;stroke-linejoin:round;stroke-miterlimit:1.5;">
    <g transform="matrix(1,0,0,1,-7,0)">
        <g id="Home" transform="matrix(1,0,0,1,-313.876,0.305827)">
            <rect x="320.961" y="-0.306" width="299.953" height="299.953" style="fill:none;"/>
            <g transform="matrix(1.06358,0,0,1.06358,311.553,0.343366)">
                <path d="M127.128,239.008C127.128,240.255 126.633,241.45 125.751,242.332C124.87,243.214 123.674,243.709 122.427,243.709C113.144,243.709 92.557,243.709 83.274,243.709C82.027,243.709 80.832,243.214 79.95,242.332C79.068,241.45 78.573,240.255 78.573,239.008L78.573,156.465C78.573,155.218 78.078,154.023 77.196,153.141C76.315,152.259 75.119,151.764 73.872,151.764L64.814,151.764C62.993,151.764 61.335,150.712 60.56,149.063C59.785,147.414 60.032,145.466 61.195,144.063C79.534,121.937 131.973,58.668 146.237,41.459C147.13,40.381 148.457,39.757 149.856,39.757C151.256,39.757 152.582,40.381 153.476,41.459C167.74,58.668 220.179,121.937 238.517,144.063C239.68,145.466 239.927,147.414 239.152,149.063C238.377,150.712 236.72,151.764 234.898,151.764C231.755,151.764 228.433,151.764 225.84,151.764C224.593,151.764 223.398,152.259 222.516,153.141C221.634,154.023 221.139,155.218 221.139,156.465L221.139,239.008C221.139,240.255 220.644,241.45 219.762,242.332C218.881,243.214 217.685,243.709 216.438,243.709L177.285,243.709C176.038,243.709 174.843,243.214 173.961,242.332C173.079,241.45 172.584,240.255 172.584,239.008C172.584,227.005 172.584,195.329 172.584,183.325C172.584,180.729 170.479,178.624 167.883,178.624C159.158,178.624 140.555,178.624 131.829,178.624C129.233,178.624 127.128,180.729 127.128,183.325C127.128,195.329 127.128,227.005 127.128,239.008Z" style="fill:none;stroke:white;stroke-width:7.52px;"/>
            </g>
        </g>
    </g>
</svg>
