<svg width="100%" height="100%" viewBox="0 0 301 301" version="1.1" style="fill-rule:evenodd;clip-rule:evenodd;stroke-linecap:round;stroke-linejoin:round;stroke-miterlimit:1.5;">
    <g transform="matrix(1,0,0,1,-2433,-1833)">
        <g id="Hot-Water-Tanks" transform="matrix(1,0,0,1,2112.52,1834.28)">
            <rect x="320.961" y="-0.306" width="299.953" height="299.953" style="fill:none;"/>
            <g transform="matrix(1.13304,0,0,1.13304,-2057.81,-2101.75)">
                <path d="M2276.9,1931.63C2275.31,1931.63 2273.78,1931 2272.65,1929.87C2271.52,1928.75 2270.89,1927.22 2270.89,1925.62C2270.89,1920.26 2270.89,1912.37 2270.89,1906.62C2270.89,1904.67 2270.12,1902.79 2268.73,1901.41C2267.35,1900.03 2265.47,1899.25 2263.52,1899.25L2213.87,1899.25C2211.91,1899.25 2210.04,1900.03 2208.66,1901.41C2207.27,1902.79 2206.5,1904.67 2206.5,1906.62L2206.5,1925.77C2206.5,1929.01 2203.87,1931.63 2200.63,1931.63C2200.63,1931.63 2200.63,1931.63 2200.63,1931.63C2198.78,1931.63 2197.02,1932.37 2195.71,1933.67C2190.23,1939.16 2174.96,1954.45 2165.74,1963.68C2161.03,1968.39 2158.39,1974.78 2158.39,1981.44C2158.38,2000.95 2158.38,2042.95 2158.38,2063.99C2158.38,2067.31 2159.7,2070.5 2162.05,2072.85C2164.4,2075.2 2167.59,2076.53 2170.91,2076.53C2200.9,2076.53 2276.49,2076.53 2306.47,2076.53C2309.8,2076.53 2312.99,2075.2 2315.34,2072.85C2317.69,2070.5 2319.01,2067.31 2319.01,2063.99C2319.01,2042.92 2319.01,2000.83 2319,1981.36C2319,1974.75 2316.4,1968.4 2311.75,1963.7C2302.75,1954.59 2287.91,1939.57 2282.31,1933.89C2280.88,1932.45 2278.93,1931.63 2276.9,1931.63C2276.9,1931.63 2276.9,1931.63 2276.9,1931.63Z" style="fill:none;stroke:white;stroke-width:7.06px;"/>
            </g>
            <g transform="matrix(1.21053,0,0,1.21053,-2231.67,-2237.53)">
                <path d="M2206.5,1918.61L2270.89,1918.61" style="fill:none;stroke:white;stroke-width:6.61px;"/>
            </g>
            <g transform="matrix(1.13304,0,0,1.13304,-2057.81,-2101.75)">
                <rect x="2145.57" y="2040.61" width="12.006" height="20.787" style="fill:none;stroke:white;stroke-width:7.06px;"/>
            </g>
            <g transform="matrix(0.543094,0,0,0.543094,-359.501,-505.259)">
                <path d="M1533.29,1139.24C1563.72,1226.5 1481.88,1216.13 1465.75,1281.98C1457.74,1314.69 1502.68,1345.74 1540.99,1345.74C1575.3,1345.74 1614.48,1320.46 1614.48,1286.14C1614.48,1245.07 1584.25,1190.33 1533.29,1139.24Z" style="fill:none;stroke:white;stroke-width:9.21px;"/>
            </g>
            <g transform="matrix(0.271547,0,0,0.271547,61.7518,-139.826)">
                <path d="M1533.29,1139.24C1563.72,1226.5 1481.88,1216.13 1465.75,1281.98C1457.74,1314.69 1502.68,1345.74 1540.99,1345.74C1575.3,1345.74 1614.48,1320.46 1614.48,1286.14C1614.48,1245.07 1584.25,1190.33 1533.29,1139.24Z" style="fill:none;stroke:white;stroke-width:18.41px;"/>
            </g>
        </g>
    </g>
</svg>
