<svg width="100%" height="100%" viewBox="0 0 301 301" version="1.1" style="fill-rule:evenodd;clip-rule:evenodd;stroke-linejoin:round;stroke-miterlimit:2;">
    <g transform="matrix(1,0,0,1,-1396,-2192)">
        <g id="HVAC-Efficiency" transform="matrix(1,0,0,1,1075.86,2192.81)">
            <rect x="320.961" y="-0.306" width="299.953" height="299.953" style="fill:none;"/>
            <g transform="matrix(1,0,0,1,-1074.23,-2192.81)">
                <path d="M1555.43,2285.25C1562.23,2260.84 1577.17,2239.19 1588.41,2238.5C1604.02,2237.55 1621.14,2246.57 1632.12,2261.46C1642.08,2274.96 1644.78,2290.72 1639.55,2304.57C1636.22,2311.36 1632.31,2309.76 1625.41,2306.84C1617.34,2303.49 1606.38,2298.89 1590.65,2306.55C1598.44,2316.45 1603.08,2328.93 1603.08,2342.48C1603.08,2346.04 1602.76,2349.52 1602.15,2352.9C1626.7,2359.63 1648.13,2374.57 1648.82,2385.99C1649.77,2401.61 1640.76,2418.73 1625.87,2429.71C1612.25,2439.67 1596.5,2442.35 1582.64,2437.12C1575.97,2433.82 1577.57,2429.91 1580.48,2423.01C1583.89,2414.94 1588.52,2403.97 1580.85,2388.22C1570.95,2396.01 1558.46,2400.67 1544.9,2400.67C1541.34,2400.67 1537.86,2400.35 1534.47,2399.73C1527.74,2424.29 1512.76,2445.75 1501.4,2446.46C1485.78,2447.43 1468.66,2438.4 1457.68,2423.51C1447.72,2409.89 1445.02,2394.14 1450.25,2380.28C1451.93,2376.76 1453.9,2375.51 1456.25,2375.51C1459.07,2375.84 1461.8,2376.69 1464.32,2378.01C1472.4,2381.42 1483.36,2386.06 1499.11,2378.38C1491.35,2368.49 1486.71,2356.02 1486.71,2342.48C1486.71,2338.86 1487.05,2335.32 1487.68,2331.89C1463.27,2325.09 1441.66,2310.14 1440.97,2298.91C1440.02,2283.31 1449.04,2266.19 1463.93,2255.21C1477.54,2245.25 1493.3,2242.55 1507.15,2247.78C1513.85,2251.1 1512.23,2255.02 1509.31,2261.91C1505.9,2269.99 1501.26,2280.97 1508.95,2296.74C1518.85,2288.95 1531.33,2284.3 1544.9,2284.3C1548.49,2284.3 1552.01,2284.63 1555.43,2285.25Z" style="fill:none;fill-rule:nonzero;stroke:white;stroke-width:8px;"/>
            </g>
            <g transform="matrix(0.431374,0.340496,-0.340496,0.431374,-213.254,-1272.6)">
                <path d="M2579.35,1261.72C2581.56,1259.84 2582.84,1257.09 2582.84,1254.18C2582.9,1251.99 2582.9,1249.93 2582.9,1249.93C2582.9,1249.93 2586.96,1221.49 2589.57,1203.25C2589.72,1202.17 2590.63,1201.38 2591.72,1201.38C2592.8,1201.38 2593.71,1202.17 2593.87,1203.24C2596.51,1221.46 2600.62,1249.84 2600.62,1249.84L2600.62,1254.18C2600.62,1257.1 2601.91,1259.88 2604.13,1261.77C2608.4,1265.27 2611.08,1270.59 2611.08,1276.53C2611.08,1282.41 2608.44,1287.69 2604.29,1291.23C2602.49,1292.78 2600.2,1293.64 2597.82,1293.64C2594.51,1293.7 2589.01,1293.7 2585.7,1293.7C2583.31,1293.7 2581,1292.84 2579.19,1291.28C2575.08,1287.69 2572.44,1282.41 2572.44,1276.53C2572.44,1270.59 2575.12,1265.27 2579.35,1261.72Z" style="fill:none;stroke:white;stroke-width:9.1px;stroke-linecap:round;stroke-miterlimit:1.5;"/>
            </g>
            <g transform="matrix(1,0,0,1,-1074.23,-2192.81)">
                <path d="M1508.48,2342.48C1508.48,2322.22 1524.92,2305.78 1545.17,2305.78C1551.38,2305.78 1557.23,2307.33 1562.36,2310.05" style="fill:none;stroke:white;stroke-width:5px;stroke-linecap:round;stroke-miterlimit:1.5;"/>
            </g>
            <g transform="matrix(1,0,0,1,-1074.23,-2192.81)">
                <path d="M1579.75,2330.3C1581.42,2334.1 1581.86,2337.35 1581.86,2342.48" style="fill:none;stroke:white;stroke-width:5px;stroke-linecap:round;stroke-miterlimit:1.5;"/>
            </g>
        </g>
    </g>
</svg>
