<svg width="100%" height="100%" viewBox="0 0 301 301" version="1.1" style="fill-rule:evenodd;clip-rule:evenodd;stroke-linecap:round;stroke-linejoin:round;stroke-miterlimit:1.5;">
    <g transform="matrix(1,0,0,1,-345,-732)">
        <g id="Lightbulb" transform="matrix(1,0,0,1,24.5378,732.716)">
            <rect x="320.961" y="-0.306" width="299.953" height="299.953" style="fill:none;"/>
            <g transform="matrix(0.968429,0,0,0.968429,-8.89535,-690.816)">
                <path d="M466.282,922.785C466.282,902.166 459.681,882.088 447.447,865.491C440.045,855.593 435.694,843.304 435.694,830.007C435.694,797.012 462.481,770.225 495.476,770.225C528.47,770.225 555.257,797.012 555.257,830.007C555.257,843.208 550.969,855.415 543.712,865.31C531.374,882.218 524.725,902.608 524.725,923.539C524.669,923.54 524.669,923.54 524.669,923.541C524.669,925.407 523.882,927.187 522.5,928.442C521.119,929.697 519.272,930.312 517.414,930.133C504.239,928.87 476.981,926.255 468.712,925.462C467.334,925.33 466.282,924.172 466.282,922.787C466.282,922.787 466.282,922.786 466.282,922.785Z" style="fill:none;stroke:white;stroke-width:8.26px;"/>
            </g>
            <g transform="matrix(0.963898,0,0,1,-7.65999,-723.845)">
                <path d="M467.503,941.639L524.41,947.288" style="fill:none;stroke:white;stroke-width:5.09px;"/>
            </g>
            <g transform="matrix(1.14329,-0.117758,0.122168,1.18611,-210.993,-886.046)">
                <path d="M467.503,941.639L524.41,947.288" style="fill:none;stroke:white;stroke-width:4.27px;"/>
            </g>
            <g transform="matrix(0.826782,0,0,0.857749,59.9547,-578.58)">
                <path d="M467.503,941.639L524.41,947.288" style="fill:none;stroke:white;stroke-width:5.94px;"/>
            </g>
            <g transform="matrix(0.652601,0,0,0.677043,145.662,-397.093)">
                <path d="M467.503,941.639L524.41,947.288" style="fill:none;stroke:white;stroke-width:7.52px;"/>
            </g>
        </g>
    </g>
</svg>
