<svg width="100%" height="100%" viewBox="0 0 301 301" version="1.1" style="fill-rule:evenodd;clip-rule:evenodd;stroke-linecap:round;stroke-linejoin:round;stroke-miterlimit:1.5;">
    <g transform="matrix(1,0,0,1,-2444,-1469)">
        <g id="List-View" transform="matrix(1,0,0,1,2123.85,1470.19)">
            <rect x="320.961" y="-0.306" width="299.953" height="299.953" style="fill:none;"/>
            <g transform="matrix(1.03827,0,0,1.03827,-33.5837,-3.79147)">
                <g transform="matrix(1,0,0,1,-2122.23,-1479.22)">
                    <circle cx="2535.26" cy="1554.29" r="11.074" style="fill:none;stroke:white;stroke-width:4.82px;"/>
                </g>
                <g transform="matrix(1.95968,0,0,1,-4580.43,-1470.19)">
                    <path d="M2619.3,1539.73C2619.3,1536.67 2618.04,1534.19 2616.48,1534.19L2564.31,1534.19C2562.75,1534.19 2561.49,1536.67 2561.49,1539.73L2561.49,1550.8C2561.49,1553.86 2562.75,1556.34 2564.31,1556.34L2616.48,1556.34C2618.04,1556.34 2619.3,1553.86 2619.3,1550.8L2619.3,1539.73Z" style="fill:none;stroke:white;stroke-width:4.95px;"/>
                </g>
            </g>
            <g transform="matrix(1.03827,0,0,1.03827,-33.5837,-3.38803)">
                <g transform="matrix(1,0,0,1,-2122.23,-1431.12)">
                    <circle cx="2535.26" cy="1554.29" r="11.074" style="fill:none;stroke:white;stroke-width:4.82px;"/>
                </g>
                <g transform="matrix(1.71734,0,0,1,-3959.68,-1422.09)">
                    <path d="M2619.3,1539.73C2619.3,1536.67 2617.86,1534.19 2616.08,1534.19L2564.71,1534.19C2562.93,1534.19 2561.49,1536.67 2561.49,1539.73L2561.49,1550.8C2561.49,1553.86 2562.93,1556.34 2564.71,1556.34L2616.08,1556.34C2617.86,1556.34 2619.3,1553.86 2619.3,1550.8L2619.3,1539.73Z" style="fill:none;stroke:white;stroke-width:5.48px;"/>
                </g>
            </g>
            <g transform="matrix(1.03827,0,0,1.03827,-33.5837,-2.98459)">
                <g transform="matrix(1,0,0,1,-2122.23,-1383.01)">
                    <circle cx="2535.26" cy="1554.29" r="11.074" style="fill:none;stroke:white;stroke-width:4.82px;"/>
                </g>
                <g transform="matrix(2.30765,0,0,1,-5471.76,-1373.99)">
                    <path d="M2619.3,1539.73C2619.3,1536.67 2618.23,1534.19 2616.91,1534.19L2563.89,1534.19C2562.56,1534.19 2561.49,1536.67 2561.49,1539.73L2561.49,1550.8C2561.49,1553.86 2562.56,1556.34 2563.89,1556.34L2616.91,1556.34C2618.23,1556.34 2619.3,1553.86 2619.3,1550.8L2619.3,1539.73Z" style="fill:none;stroke:white;stroke-width:4.33px;"/>
                </g>
            </g>
            <g transform="matrix(1.03827,0,0,1.03827,-33.5837,-3.79147)">
                <g transform="matrix(1,0,0,1,-2122.23,-1333.74)">
                    <circle cx="2535.26" cy="1554.29" r="11.074" style="fill:none;stroke:white;stroke-width:4.82px;"/>
                </g>
                <g transform="matrix(1.35072,0,0,1,-3020.6,-1324.71)">
                    <path d="M2619.3,1539.73C2619.3,1536.67 2617.47,1534.19 2615.21,1534.19L2565.59,1534.19C2563.32,1534.19 2561.49,1536.67 2561.49,1539.73L2561.49,1550.8C2561.49,1553.86 2563.32,1556.34 2565.59,1556.34L2615.21,1556.34C2617.47,1556.34 2619.3,1553.86 2619.3,1550.8L2619.3,1539.73Z" style="fill:none;stroke:white;stroke-width:6.48px;"/>
                </g>
            </g>
        </g>
    </g>
</svg>
