<svg width="100%" height="100%" viewBox="0 0 300 301" version="1.1" style="fill-rule:evenodd;clip-rule:evenodd;stroke-linecap:round;stroke-linejoin:round;stroke-miterlimit:1.5;">
    <g transform="matrix(1,0,0,1,-2792,-1469)">
        <g id="Map-View" transform="matrix(1,0,0,1,2471.05,1470.19)">
            <rect x="320.961" y="-0.306" width="299.953" height="299.953" style="fill:none;"/>
            <g transform="matrix(-0.728668,-8.92361e-17,8.92361e-17,-0.728668,1592.86,1048.02)">
                <path d="M1544.63,1164.77C1543.81,1163.15 1542.15,1162.14 1540.34,1162.14C1538.52,1162.14 1536.87,1163.16 1536.05,1164.78C1525.18,1186.2 1496.12,1243.37 1478.58,1277.04C1458.89,1314.84 1484.49,1370.17 1540.23,1369.77C1599.94,1369.35 1618.36,1311.55 1601.33,1277.04C1585.72,1245.4 1555.76,1186.58 1544.63,1164.77Z" style="fill:none;stroke:white;stroke-width:10.98px;"/>
            </g>
            <g transform="matrix(0.77466,0,0,0.77466,-991.044,-1130.72)">
                <circle cx="1887.23" cy="1586.47" r="37.971" style="fill:none;stroke:white;stroke-width:6.45px;"/>
            </g>
            <g transform="matrix(1,0,0,1,-2469.43,-1449.95)">
                <path d="M2920.39,1619.87L2886.45,1619.87C2884.45,1619.87 2882.59,1620.88 2881.51,1622.57C2875.3,1632.27 2853.92,1665.63 2843.52,1681.88C2842.36,1683.68 2842.28,1685.98 2843.31,1687.86C2844.34,1689.74 2846.31,1690.91 2848.46,1690.91C2883.85,1690.91 2996.71,1690.91 3032.58,1690.91C3034.76,1690.91 3036.75,1689.71 3037.77,1687.79C3038.78,1685.88 3038.66,1683.55 3037.44,1681.75C3026.36,1665.39 3003.71,1631.95 2997.27,1622.44C2996.18,1620.83 2994.36,1619.87 2992.41,1619.87C2983.66,1619.87 2959.47,1619.87 2959.47,1619.87" style="fill:none;stroke:white;stroke-width:8px;"/>
            </g>
            <g transform="matrix(1,0,0,1,-2469.43,-1470.19)">
                <path d="M2993.45,1645.05C2952.63,1654.19 2962.6,1673.53 2946.9,1685.42C2920.37,1705.5 2874.8,1678.3 2845.2,1706.71" style="fill:none;stroke:white;stroke-width:5px;"/>
            </g>
        </g>
    </g>
</svg>
