<svg width="100%" height="100%" viewBox="0 0 301 301" version="1.1" style="fill-rule:evenodd;clip-rule:evenodd;stroke-linecap:round;stroke-linejoin:round;stroke-miterlimit:1.5;">
    <g transform="matrix(1,0,0,1,-693,-732)">
        <g id="Notification-Bell" transform="matrix(1,0,0,1,372.657,732.716)">
            <rect x="320.961" y="-0.306" width="299.953" height="299.953" style="fill:none;"/>
            <g transform="matrix(1,0,0,1,-369.626,-734.387)">
                <path d="M826.185,803.682C815.525,806.002 805.657,811.336 797.823,819.171C787.066,829.928 781.023,844.518 781.023,859.73L781.023,926.98L780.781,926.98C780.781,929.889 779.625,932.678 777.569,934.735C776.623,935.681 775.521,936.436 774.325,936.976C771.593,938.221 769.84,940.947 769.84,943.949C769.814,944.063 769.814,944.175 769.814,944.285C769.814,948.532 773.257,951.975 777.503,951.975C802.004,951.975 878.058,951.975 902.558,951.975C906.805,951.975 910.248,948.532 910.248,944.285C910.248,944.175 910.248,944.063 910.248,943.949C910.247,940.937 908.488,938.202 905.747,936.953C904.54,936.436 903.439,935.681 902.493,934.735C900.437,932.678 899.281,929.889 899.281,926.98L899.039,926.98L899.039,859.73C899.039,844.518 892.996,829.928 882.239,819.171C874.405,811.336 864.537,806.002 853.876,803.682L853.876,794.294C853.876,787.102 848.047,781.272 840.855,781.272C840.306,781.272 839.756,781.272 839.207,781.272C832.015,781.272 826.185,787.102 826.185,794.294L826.185,803.682Z" style="fill:none;stroke:rgb(244,244,244);stroke-width:2px;"/>
            </g>
            <g transform="matrix(1.68197,0,0,1.68197,-945.785,-1429.61)">
                <path d="M824.995,979.749L858.974,979.749C858.974,989.126 851.361,996.739 841.985,996.739C832.608,996.739 824.995,989.126 824.995,979.749Z" style="fill:none;stroke:rgb(244,244,244);stroke-width:1px;"/>
            </g>
        </g>
    </g>
</svg>
