<svg width="100%" height="100%" viewBox="0 0 301 301" version="1.1" style="fill-rule:evenodd;clip-rule:evenodd;stroke-linecap:round;stroke-linejoin:round;stroke-miterlimit:1.5;">
    <g transform="matrix(1,0,0,1,-345,-1099)">
        <g id="Reports" transform="matrix(1,0,0,1,24.5378,1100.19)">
            <rect x="320.961" y="-0.306" width="299.953" height="299.953" style="fill:none;"/>
            <g transform="matrix(1,0,0,1,-23.5068,-1098.19)">
                <path d="M491.575,1157.07C491.575,1155.9 491.099,1154.79 490.257,1153.98C489.415,1153.16 488.28,1152.73 487.111,1152.77C435.533,1155.12 394.432,1197.67 394.432,1249.83C394.432,1303.44 437.96,1346.97 491.575,1346.97C530.521,1346.97 565.501,1323.74 580.774,1288.31C581.344,1286.95 581.334,1285.42 580.746,1284.08C580.158,1282.73 579.044,1281.68 577.663,1281.18C561.014,1275.1 509.187,1256.24 495.125,1251.12C492.994,1250.35 491.575,1248.32 491.575,1246.05L491.575,1157.07Z" style="fill:none;stroke:white;stroke-width:8px;"/>
            </g>
            <g transform="matrix(0.761234,0,0,0.761234,111.785,-812.414)">
                <path d="M576.698,1280.81C578.345,1281.41 580.167,1281.31 581.732,1280.52C583.297,1279.73 584.468,1278.33 584.966,1276.65C587.445,1267.93 588.718,1258.91 588.718,1249.83C588.718,1197.97 548.086,1155.61 496.923,1152.83C495.533,1152.77 494.176,1153.28 493.17,1154.24C492.163,1155.2 491.594,1156.53 491.594,1157.92C491.575,1175.66 491.575,1233.13 491.575,1246.86C491.575,1248.64 492.689,1250.24 494.362,1250.84C506.96,1255.43 558.746,1274.28 576.698,1280.81Z" style="fill:none;stroke:white;stroke-width:10.51px;"/>
            </g>
        </g>
    </g>
</svg>
