<svg width="100%" height="100%" viewBox="0 0 301 300" version="1.1" style="fill-rule:evenodd;clip-rule:evenodd;stroke-linecap:round;stroke-linejoin:round;stroke-miterlimit:1.5;">
    <g transform="matrix(1,0,0,1,-697,0)">
        <g id="Settings" transform="matrix(1,0,0,1,376.712,0.305827)">
            <rect x="320.961" y="-0.306" width="299.953" height="299.953" style="fill:none;"/>
            <g transform="matrix(1,0,0,1,-369.626,-0.305827)">
                <path d="M851.578,48.552C850.765,47.072 849.26,46.103 847.577,45.974C842.577,45.617 837.557,45.617 832.557,45.978C830.875,46.107 829.372,47.075 828.559,48.553C826.507,52.279 822.543,59.489 820.658,62.917C819.996,64.121 818.868,64.999 817.539,65.346C810.04,67.337 802.84,70.319 796.127,74.211C794.943,74.905 793.526,75.081 792.208,74.698C788.45,73.611 780.549,71.315 776.464,70.129C774.843,69.658 773.094,70.036 771.812,71.135C768.024,74.419 764.475,77.968 761.195,81.759C760.096,83.039 759.718,84.787 760.188,86.407C761.372,90.492 763.667,98.394 764.759,102.151C765.142,103.47 764.965,104.888 764.27,106.073C760.376,112.784 757.393,119.984 755.398,127.482C755.052,128.81 754.174,129.936 752.972,130.598C749.546,132.486 742.335,136.45 738.608,138.5C737.128,139.313 736.159,140.817 736.031,142.501C735.674,147.501 735.674,152.52 736.035,157.52C736.163,159.202 737.131,160.706 738.61,161.519C742.335,163.571 749.546,167.535 752.974,169.419C754.177,170.081 755.055,171.209 755.402,172.538C757.393,180.037 760.376,187.237 764.267,193.95C764.961,195.134 765.137,196.551 764.754,197.869C763.667,201.627 761.372,209.529 760.185,213.613C759.714,215.234 760.092,216.984 761.192,218.265C764.475,222.053 768.024,225.602 771.815,228.883C773.095,229.981 774.843,230.36 776.463,229.889C780.549,228.706 788.45,226.41 792.207,225.319C793.526,224.936 794.944,225.112 796.129,225.807C802.84,229.702 810.04,232.684 817.538,234.679C818.866,235.026 819.993,235.903 820.654,237.106C822.543,240.532 826.507,247.742 828.556,251.469C829.369,252.949 830.874,253.918 832.557,254.047C837.557,254.404 842.577,254.404 847.576,254.043C849.258,253.914 850.762,252.946 851.575,251.468C853.627,247.742 857.591,240.532 859.476,237.104C860.138,235.9 861.265,235.022 862.595,234.675C870.094,232.684 877.294,229.702 884.006,225.81C885.19,225.117 886.608,224.94 887.926,225.323C891.684,226.41 899.585,228.706 903.67,229.892C905.291,230.363 907.04,229.985 908.321,228.886C912.109,225.602 915.659,222.053 918.939,218.262C920.037,216.982 920.416,215.234 919.945,213.614C918.762,209.529 916.467,201.627 915.375,197.871C914.992,196.551 915.169,195.133 915.863,193.948C919.758,187.237 922.74,180.037 924.735,172.539C925.082,171.211 925.96,170.085 927.162,169.423C930.588,167.535 937.798,163.571 941.526,161.521C943.005,160.708 943.975,159.204 944.103,157.52C944.46,152.52 944.46,147.501 944.099,142.501C943.971,140.819 943.002,139.315 941.524,138.502C937.798,136.45 930.588,132.486 927.16,130.602C925.956,129.94 925.078,128.812 924.731,127.483C922.74,119.984 919.758,112.784 915.867,106.071C915.173,104.887 914.997,103.47 915.38,102.152C916.467,98.394 918.762,90.492 919.949,86.408C920.42,84.787 920.041,83.037 918.942,81.756C915.659,77.968 912.109,74.419 908.319,71.139C907.039,70.04 905.291,69.661 903.671,70.132C899.585,71.315 891.684,73.611 887.927,74.702C886.608,75.085 885.189,74.909 884.004,74.214C877.294,70.319 870.094,67.337 862.596,65.342C861.268,64.995 860.141,64.118 859.48,62.915C857.591,59.489 853.627,52.279 851.578,48.552ZM840.067,83.257C876.909,83.257 906.821,113.168 906.821,150.011C906.821,186.853 876.909,216.764 840.067,216.764C803.224,216.764 773.313,186.853 773.313,150.011C773.313,113.168 803.224,83.257 840.067,83.257Z" style="fill:none;stroke:white;stroke-width:8px;"/>
            </g>
        </g>
    </g>
</svg>
