<svg width="100%" height="100%" viewBox="0 0 301 301" style="fill-rule:evenodd;clip-rule:evenodd;stroke-linecap:round;stroke-linejoin:round;stroke-miterlimit:1.5;">
    <g transform="matrix(1,0,0,1,-693,-2910)">
        <g id="Too-Cold" transform="matrix(1,0,0,1,372.633,2910.88)">
            <rect x="320.961" y="-0.306" width="299.953" height="299.953" style="fill:none;"/>
            <g transform="matrix(1,0,0,1,-1772.7,-1100.19)">
                <path d="M2212.74,1265.15C2217.17,1261.6 2219.75,1256.22 2219.75,1250.53C2219.77,1227.28 2219.77,1171.16 2219.77,1171.16C2219.77,1157.98 2230.46,1147.28 2243.64,1147.28C2256.82,1147.28 2267.51,1157.98 2267.51,1171.16L2267.51,1250.53C2267.51,1256.22 2270.1,1261.61 2274.54,1265.16C2285.83,1274.22 2293.07,1288.13 2293.07,1303.72C2293.07,1331 2270.92,1353.14 2243.64,1353.14C2216.36,1353.14 2194.21,1331 2194.21,1303.72C2194.21,1288.13 2201.45,1274.22 2212.74,1265.15Z" style="fill:none;stroke:blue;stroke-width:8px;"/>
            </g>
            <g transform="matrix(0.654089,0,0,0.654089,-996.603,-647.539)">
                <path d="M2214.69,1254.62C2222.25,1249.25 2226.75,1240.55 2226.75,1231.27C2226.79,1224.75 2226.79,1218.81 2226.79,1218.81L2261.63,1218.81L2261.63,1232.12C2261.63,1241.03 2265.77,1249.43 2272.84,1254.86C2289.3,1267.44 2298.35,1287.51 2298.35,1302.92C2298.35,1330.2 2270.92,1357.37 2243.64,1357.37C2216.36,1357.37 2190.25,1331.79 2190.25,1304.51C2190.25,1288.89 2196.23,1267.72 2214.69,1254.62Z" style="fill:none;stroke:blue;stroke-width:7.64px;"/>
            </g>
        </g>
    </g>
</svg>
