<svg width="100%" height="100%" viewBox="0 0 301 301" version="1.1" style="fill-rule:evenodd;clip-rule:evenodd;stroke-linecap:round;stroke-linejoin:round;stroke-miterlimit:1.5;">
    <g transform="matrix(1,0,0,1,-2444,-732)">
        <g id="User-Settings" transform="matrix(1,0,0,1,2123.85,732.716)">
            <rect x="320.961" y="-0.306" width="299.953" height="299.953" style="fill:none;"/>
            <g transform="matrix(1,0,0,1,-1768.13,-344.827)">
                <circle cx="2236.7" cy="442.115" r="43.556" style="fill:none;stroke:rgba(244,244,244);stroke-width:8px;"/>
            </g>
            <g transform="matrix(1.50758,0,0,1.50758,-2903.42,-457.704)">
                <path d="M2241.08,465.368L2193.15,465.368C2193.15,412.473 2212.66,398.559 2236.7,398.559C2246.07,398.559 2252.41,399.726 2259.52,404.794" style="fill:none;stroke:rgba(244,244,244);stroke-width:5.31px;"/>
            </g>
            <g transform="matrix(0.500156,0,0,0.500156,103.771,128.131)">
                <path d="M852.903,50.961C851.229,47.916 848.094,45.959 844.623,45.792C841.587,45.674 838.547,45.674 835.512,45.807C832.046,45.974 828.916,47.928 827.244,50.969C825.501,54.109 823.263,58.179 821.661,61.092C820.372,63.437 818.197,65.166 815.623,65.895C809.448,67.669 803.494,70.136 797.863,73.231C795.532,74.533 792.777,74.847 790.212,74.102C787.015,73.194 782.554,71.898 779.105,70.896C775.768,69.926 772.167,70.759 769.594,73.095C767.365,75.159 765.215,77.308 763.163,79.549C760.83,82.117 759.999,85.713 760.967,89.044C761.954,92.498 763.25,96.958 764.178,100.151C764.924,102.72 764.609,105.481 763.303,107.816C760.192,113.438 757.726,119.391 755.933,125.561C755.206,128.131 753.479,130.301 751.139,131.588C748.236,133.207 744.165,135.444 741.018,137.175C737.973,138.849 736.015,141.984 735.848,145.455C735.731,148.491 735.731,151.53 735.863,154.566C736.03,158.031 737.984,161.162 741.025,162.833C744.165,164.577 748.236,166.815 751.149,168.416C753.493,169.705 755.223,171.88 755.951,174.455C757.726,180.63 760.192,186.583 763.287,192.214C764.59,194.545 764.904,197.301 764.159,199.865C763.25,203.063 761.954,207.523 760.952,210.972C759.983,214.309 760.815,217.91 763.151,220.483C765.215,222.713 767.365,224.862 769.605,226.914C772.173,229.247 775.769,230.079 779.101,229.111C782.554,228.123 787.015,226.827 790.207,225.9C792.776,225.154 795.537,225.469 797.873,226.774C803.494,229.885 809.448,232.352 815.618,234.144C818.187,234.872 820.358,236.598 821.644,238.938C823.263,241.842 825.501,245.912 827.231,249.06C828.905,252.105 832.04,254.062 835.511,254.229C838.547,254.347 841.587,254.347 844.622,254.214C848.088,254.047 851.218,252.093 852.89,249.052C854.633,245.912 856.871,241.842 858.472,238.929C859.762,236.584 861.937,234.855 864.511,234.126C870.686,232.352 876.64,229.885 882.27,226.791C884.601,225.488 887.357,225.174 889.921,225.919C893.119,226.827 897.579,228.123 901.029,229.125C904.366,230.095 907.967,229.262 910.539,226.926C912.769,224.862 914.918,222.713 916.971,220.472C919.303,217.904 920.135,214.309 919.167,210.977C918.179,207.523 916.884,203.063 915.956,199.87C915.21,197.301 915.525,194.54 916.83,192.205C919.942,186.583 922.408,180.63 924.201,174.46C924.928,171.89 926.654,169.72 928.994,168.433C931.898,166.815 935.968,164.577 939.116,162.846C942.161,161.172 944.119,158.037 944.286,154.566C944.403,151.53 944.403,148.491 944.27,145.455C944.104,141.99 942.149,138.859 939.109,137.188C935.968,135.444 931.898,133.207 928.985,131.605C926.641,130.316 924.911,128.141 924.183,125.566C922.408,119.391 919.942,113.438 916.847,107.807C915.544,105.476 915.23,102.72 915.975,100.156C916.884,96.958 918.179,92.498 919.181,89.049C920.151,85.712 919.318,82.111 916.982,79.538C914.918,77.308 912.769,75.159 910.529,73.107C907.96,70.774 904.365,69.942 901.033,70.91C897.579,71.898 893.119,73.194 889.927,74.121C887.358,74.867 884.596,74.552 882.261,73.247C876.64,70.136 870.686,67.669 864.516,65.877C861.947,65.15 859.776,63.423 858.49,61.083C856.871,58.179 854.633,54.109 852.903,50.961ZM840.067,83.257C876.909,83.257 906.821,113.168 906.821,150.011C906.821,186.853 876.909,216.764 840.067,216.764C803.224,216.764 773.313,186.853 773.313,150.011C773.313,113.168 803.224,83.257 840.067,83.257Z" style="fill:none;stroke:rgba(244,244,244);stroke-width:10px;"/>
            </g>
        </g>
    </g>
</svg>
