<svg width="100%" height="100%" viewBox="0 0 301 301" version="1.1" style="fill-rule:evenodd;clip-rule:evenodd;stroke-linecap:round;stroke-linejoin:round;stroke-miterlimit:1.5;">
    <g transform="matrix(1,0,0,1,-1038,-2192)">
        <g id="Utilities-Consumption" transform="matrix(1,0,0,1,717.33,2192.81)">
            <rect x="320.961" y="-0.306" width="299.953" height="299.953" style="fill:none;"/>
            <g transform="matrix(0.707126,0,0,0.351318,91.6954,168.15)">
                <path d="M438.087,64.985L438.087,215.299" style="fill:none;stroke:white;stroke-width:26.87px;"/>
            </g>
            <g transform="matrix(0.92286,0,0,0.585716,70.4475,117.685)">
                <path d="M438.087,64.985L438.087,215.299" style="fill:none;stroke:white;stroke-width:19.41px;"/>
            </g>
            <g transform="matrix(0.229823,0,0,0.229823,442.917,194.308)">
                <path d="M438.087,64.985L438.087,215.299" style="fill:none;stroke:white;stroke-width:65.27px;"/>
            </g>
            <g transform="matrix(0.478657,0,0,0.478657,-26.4039,-464.605)">
                <path d="M1185.65,1355.43C1184.77,1356.08 1183.62,1356.25 1182.59,1355.88C1181.56,1355.5 1180.78,1354.64 1180.51,1353.58C1178.43,1345.22 1174.13,1327.94 1171.91,1319.02C1171.62,1317.86 1171.97,1316.64 1172.83,1315.8C1173.68,1314.97 1174.92,1314.66 1176.07,1314.98C1178.15,1315.56 1180.51,1316.22 1182.55,1316.79C1183.88,1317.17 1185.3,1316.97 1186.48,1316.26C1187.66,1315.56 1188.5,1314.39 1188.79,1313.04C1190.95,1303.18 1195.64,1281.77 1197.88,1271.55C1198.18,1270.21 1197.83,1268.81 1196.93,1267.77C1196.04,1266.73 1194.71,1266.17 1193.35,1266.25C1186.9,1266.65 1175.97,1267.32 1165.23,1267.98C1158.55,1268.39 1152.13,1265.31 1148.26,1259.84C1144.4,1254.37 1143.64,1247.29 1146.27,1241.13C1158.74,1211.81 1177.25,1168.32 1184.42,1151.49C1186.23,1147.24 1190.39,1144.47 1195.02,1144.46C1201.48,1144.45 1210.86,1144.43 1218.37,1144.41C1220.97,1144.41 1223.39,1145.76 1224.76,1147.97C1226.13,1150.19 1226.24,1152.96 1225.07,1155.28C1214.53,1176.14 1191.85,1221.03 1184.13,1236.3C1183.58,1237.39 1183.65,1238.68 1184.31,1239.7C1184.96,1240.72 1186.12,1241.32 1187.33,1241.27C1195.84,1240.92 1212.1,1240.24 1225.6,1239.68C1230.13,1239.49 1234.42,1241.74 1236.84,1245.58C1239.26,1249.42 1239.44,1254.26 1237.31,1258.27C1226.84,1278.02 1211.35,1307.24 1205.25,1318.74C1204.59,1319.98 1204.5,1321.44 1204.99,1322.76C1205.48,1324.07 1206.52,1325.12 1207.83,1325.62C1209.43,1326.24 1211.23,1326.93 1212.93,1327.59C1214.33,1328.12 1215.31,1329.37 1215.51,1330.85C1215.71,1332.32 1215.09,1333.79 1213.89,1334.67C1206,1340.47 1192.36,1350.5 1185.65,1355.43Z" style="fill:none;stroke:white;stroke-width:10.45px;"/>
            </g>
            <g transform="matrix(0.420418,0,0,0.420418,-245.947,-402.981)">
                <path d="M1540.33,1156.34C1521.32,1210.19 1478.58,1247.13 1478.58,1288.71C1478.58,1330.29 1513.27,1345.74 1540.99,1345.74C1568.7,1345.74 1601.33,1323.03 1601.33,1288.71C1601.33,1247.64 1555.53,1207.05 1540.33,1156.34Z" style="fill:none;stroke:white;stroke-width:11.89px;"/>
            </g>
            <g transform="matrix(0.243893,-0.0462075,0.0462075,0.243893,-32.1814,-104.116)">
                <path d="M1516.79,1218.98C1464.93,1268.51 1474.71,1325.06 1519.36,1333.52" style="fill:none;stroke:white;stroke-width:20.14px;"/>
            </g>
            <g transform="matrix(0.356595,0,0,0.356595,-75.4326,-359.396)">
                <path d="M1540.33,1156.34C1540.33,1156.34 1498.31,1245.62 1478.58,1288.71C1461.27,1326.51 1492.02,1369.77 1540.23,1369.77C1588.43,1369.77 1614.39,1320.44 1601.33,1288.71C1584.63,1248.14 1540.33,1156.34 1540.33,1156.34Z" style="fill:none;stroke:white;stroke-width:14.02px;"/>
            </g>
            <g transform="matrix(0.162295,0,0,0.162295,223.562,-100.06)">
                <path d="M1533.29,1139.24C1563.72,1226.5 1481.88,1216.13 1465.75,1281.98C1457.74,1314.69 1502.68,1345.74 1540.99,1345.74C1575.3,1345.74 1614.48,1320.46 1614.48,1286.14C1614.48,1245.07 1584.25,1190.33 1533.29,1139.24Z" style="fill:none;stroke:white;stroke-width:30.81px;"/>
            </g>
        </g>
    </g>
</svg>
