<svg width="100%" height="100%" viewBox="0 0 301 301" version="1.1" style="fill-rule:evenodd;clip-rule:evenodd;stroke-linecap:round;stroke-linejoin:round;stroke-miterlimit:1.5;">
    <g transform="matrix(1,0,0,1,-1393,-1099)">
        <g id="Water" transform="matrix(1,0,0,1,1072.12,1100.19)">
            <rect x="320.961" y="-0.306" width="299.953" height="299.953" style="fill:none;"/>
            <g transform="matrix(1.06857,0,0,1.06857,-1174.69,-1186.97)">
                <path d="M1540.33,1156.34C1521.32,1210.19 1478.58,1247.13 1478.58,1288.71C1478.58,1330.29 1513.27,1345.74 1540.99,1345.74C1568.7,1345.74 1601.33,1323.03 1601.33,1288.71C1601.33,1247.64 1555.53,1207.05 1540.33,1156.34Z" style="fill:none;stroke:white;stroke-width:7.49px;"/>
            </g>
            <g transform="matrix(0.875798,-0.165927,0.165927,0.875798,-1081.1,-687.895)">
                <path d="M1516.79,1218.98C1464.93,1268.51 1474.71,1325.06 1519.36,1333.52" style="fill:none;stroke:white;stroke-width:5.61px;"/>
            </g>
        </g>
    </g>
</svg>
